<?xml version="1.0" encoding="utf-8"?>
<!-- Generator: Adobe Illustrator 22.0.1, SVG Export Plug-In . SVG Version: 6.00 Build 0)  -->
<svg version="1.1" id="Layer_1" xmlns="http://www.w3.org/2000/svg" xmlns:xlink="http://www.w3.org/1999/xlink" x="0px" y="0px"
	 viewBox="0 0 24 24" style="enable-background:new 0 0 24 24;" xml:space="preserve">
<style type="text/css">
	.st0{fill:#B9BCBD;}
</style>
<path class="st0" d="M6,18.7c1.6,1.4,3.7,2.3,6,2.3s4.4-0.9,6-2.3c-0.3-1.1-2.4-1.7-6-1.7S6.3,17.7,6,18.7z M4.6,17.1
	C5.7,15.6,8.4,15,12,15s6.3,0.6,7.4,2.1c1-1.5,1.6-3.2,1.6-5.1c0-5-4-9-9-9s-9,4-9,9C3,13.9,3.6,15.7,4.6,17.1z M12,23
	C5.9,23,1,18.1,1,12S5.9,1,12,1s11,4.9,11,11S18.1,23,12,23z M8,10c0-2.2,1.6-4,4-4c2.4,0,4,1.9,4,4.2c0,3.3-1.8,4.8-4,4.8
	C9.8,15,8,13.4,8,10z M10,10c0,2.3,0.8,3,2,3c1.2,0,2-0.7,2-2.8C14,9,13.2,8,12,8C10.7,8,10,8.8,10,10z"/>
</svg>
