<?xml version="1.0" encoding="utf-8"?>
<!-- Generator: Adobe Illustrator 22.0.1, SVG Export Plug-In . SVG Version: 6.00 Build 0)  -->
<svg version="1.1" id="Layer_1" xmlns="http://www.w3.org/2000/svg" xmlns:xlink="http://www.w3.org/1999/xlink" x="0px" y="0px"
	 viewBox="0 0 24 24" style="enable-background:new 0 0 24 24;" xml:space="preserve">
<style type="text/css">
	.st0{fill:#B9BCBD;}
</style>
<path class="st0" d="M11,6.3c0.6,0.6,0.4,1.4-0.1,2.1c-0.1,0.2-0.3,0.3-0.4,0.5c-0.1,0.1-0.1,0.2-0.3,0.3C9.8,9.4,9.6,9.7,9.4,9.9
	c-0.1,0.1,0.6,1.5,1.9,2.8c1.3,1.3,2.7,2,2.8,1.9l0.8-0.8c0.4-0.4,0.6-0.6,1-0.8c0.6-0.4,1.3-0.5,1.9,0c1.9,1.4,3,2.2,3.5,2.8
	c1,1.1,0.9,2.7,0,3.7c-0.3,0.3-0.7,0.7-1.2,1.2c-2.8,2.8-8.7,1.1-13.3-3.5C2.3,12.6,0.6,6.7,3.4,3.9C3.9,3.4,4,3.2,4.5,2.7
	c0.9-0.9,2.6-1,3.7,0C8.8,3.3,9.7,4.4,11,6.3z M16.3,15.3L15.5,16c-1.3,1.3-3.5,0.2-5.6-1.9C7.8,12,6.7,9.8,8,8.5
	C8.2,8.3,8.4,8,8.7,7.7C8.9,7.6,8.9,7.5,9,7.5c0.1-0.1,0.2-0.2,0.2-0.3C8,5.6,7.2,4.6,6.8,4.2C6.6,3.9,6.1,4,5.9,4.2
	C5.4,4.6,5.3,4.8,4.8,5.3C3,7.1,4.4,11.9,8.2,15.8c3.9,3.9,8.7,5.3,10.5,3.4c0.5-0.4,0.8-0.8,1.1-1.1c0.2-0.2,0.2-0.7,0-0.9
	c-0.4-0.4-1.4-1.2-3-2.4C16.7,14.9,16.5,15,16.3,15.3z"/>
</svg>
