<?xml version="1.0" encoding="utf-8"?>
<!-- Generator: Adobe Illustrator 22.0.1, SVG Export Plug-In . SVG Version: 6.00 Build 0)  -->
<svg version="1.1" id="Capa_1" xmlns="http://www.w3.org/2000/svg" xmlns:xlink="http://www.w3.org/1999/xlink" x="0px" y="0px"
	 viewBox="0 0 512 512" style="enable-background:new 0 0 512 512;" xml:space="preserve">
<style type="text/css">
	.st0{fill:#87BC44;}
</style>
<g>
	<path class="st0" d="M378.1,194.8c-4.1,0-7.5-3.3-7.5-7.5c0-4.1,3.4-7.5,7.5-7.5h58.8c4.1,0,7.5,3.3,7.5,7.5c0,4.2-3.4,7.5-7.5,7.5
		H378.1z M273,488c-4.1,0-7.5-3.4-7.5-7.5s3.3-7.5,7.5-7.5h176.7c13,0,24.8-5.3,33.4-13.9c8.6-8.6,13.9-20.4,13.9-33.4
		c0-13-5.3-24.8-13.9-33.4c-8.6-8.6-20.4-13.9-33.4-13.9H62.3c-13,0-24.8,5.3-33.4,13.9c-8.6,8.6-13.9,20.4-13.9,33.4
		c0,13,5.3,24.8,13.9,33.4c8.6,8.6,20.4,13.9,33.4,13.9H239c4.1,0,7.5,3.4,7.5,7.5s-3.4,7.5-7.5,7.5H62.3c-17.1,0-32.7-7-44-18.3
		C7,458.4,0,442.9,0,425.7c0-17.1,7-32.7,18.3-44c8.4-8.4,19.2-14.4,31.2-17v-51.8h-9.2c-11.1,0-21.2-4.5-28.5-11.8
		C4.5,293.8,0,283.7,0,272.6V147.3c0-11.1,4.5-21.1,11.8-28.5c7.3-7.3,17.4-11.8,28.5-11.8h33.5c11.1,0,21.2,4.5,28.5,11.8
		c7.3,7.3,11.8,17.4,11.8,28.5V193c0,4.2-3.4,7.5-7.5,7.5s-7.5-3.3-7.5-7.5v-45.6c0-6.9-2.8-13.3-7.4-17.9
		c-4.6-4.6-10.9-7.4-17.9-7.4H40.3c-6.9,0-13.3,2.8-17.9,7.4c-4.6,4.6-7.4,10.9-7.4,17.9v125.3c0,6.9,2.8,13.3,7.4,17.9
		c4.6,4.6,10.9,7.5,17.9,7.5h9.2v-16.6l-20.9-20.9c-2.9-2.9-2.9-7.7,0-10.6c2.9-2.9,7.7-2.9,10.6,0l10.3,10.3v-22l-20.9-20.9
		c-2.9-2.9-2.9-7.7,0-10.6c2.9-2.9,7.7-2.9,10.6,0l10.3,10.3v-22l-20.9-20.9c-2.9-2.9-2.9-7.7,0-10.6c2.9-2.9,7.7-2.9,10.6,0
		l10.3,10.3v-26.4c0-4.1,3.3-7.5,7.5-7.5c4.2,0,7.5,3.3,7.5,7.5v47.2l10.3-10.3c2.9-2.9,7.7-2.9,10.6,0c2.9,2.9,2.9,7.7,0,10.6
		l-20.9,20.9v22l10.3-10.3c2.9-2.9,7.7-2.9,10.6,0c2.9,2.9,2.9,7.7,0,10.6l-20.9,20.9v39h9.2c6.9,0,13.3-2.9,17.9-7.5
		s7.4-10.9,7.4-17.9v-45.6c0-4.1,3.4-7.5,7.5-7.5s7.5,3.4,7.5,7.5v45.6c0,11.1-4.5,21.2-11.8,28.5c-7.3,7.3-17.4,11.8-28.5,11.8
		h-9.2v50.5h139v-50.5H187c-15,0-28.7-6.2-38.6-16c-9.9-9.9-16-23.5-16-38.6V86.1H57c-4.1,0-7.5-3.3-7.5-7.5s3.3-7.5,7.5-7.5H133
		c1.7-12,7.3-22.8,15.5-31c9.9-9.9,23.5-16,38.6-16h48c15,0,28.7,6.2,38.6,16c8.2,8.2,13.9,19,15.5,31H406c4.1,0,7.5,3.4,7.5,7.5
		s-3.4,7.5-7.5,7.5H289.6v65.4c0,4.1-3.4,7.5-7.5,7.5s-7.5-3.3-7.5-7.5V78.6c0-10.9-4.5-20.8-11.6-27.9
		c-7.2-7.2-17.1-11.6-27.9-11.6h-48c-10.9,0-20.8,4.5-27.9,11.6c-7.1,7.1-11.5,16.8-11.6,27.6c-0.5,60,0,120.1,0,180.1
		c0,10.9,4.5,20.8,11.6,27.9c7.2,7.2,17.1,11.6,27.9,11.6h16.5v-22.3l-32.4-32.4c-2.9-2.9-2.9-7.7,0-10.6c2.9-2.9,7.7-2.9,10.6,0
		l21.8,21.8V211l-32.4-32.4c-2.9-2.9-2.9-7.7,0-10.6c2.9-2.9,7.7-2.9,10.6,0l21.8,21.8v-43.4l-32.4-32.4c-2.9-2.9-2.9-7.7,0-10.6
		c2.9-2.9,7.7-2.9,10.6,0l21.8,21.8V78.6c0-4.1,3.4-7.5,7.5-7.5c4.1,0,7.5,3.4,7.5,7.5v77.6l21.8-21.8c2.9-2.9,7.7-2.9,10.6,0
		c2.9,2.9,2.9,7.7,0,10.6l-32.4,32.4v43.4l21.8-21.8c2.9-2.9,7.7-2.9,10.6,0c2.9,2.9,2.9,7.7,0,10.6L218.6,242v55.9h16.5
		c10.9,0,20.8-4.5,28-11.6c7.2-7.2,11.6-17.1,11.6-27.9v-72.9c0-4.1,3.4-7.5,7.5-7.5s7.5,3.3,7.5,7.5v72.9c0,15-6.2,28.7-16,38.6
		c-9.9,9.9-23.5,16-38.6,16h-16.5v50.5h41c1-14.2,7.2-26.9,16.6-36.4c9.4-9.4,22.1-15.6,36.2-16.6c3.4-6.5,7.7-12.4,12.9-17.5
		c13-13,30.9-21,50.6-21c2.6,0,5.3,0.2,7.9,0.5c4.1,0.5,7.1,4.1,6.6,8.2c-0.5,4.1-4.2,7.1-8.3,6.6c-2.1-0.2-4.1-0.3-6.3-0.3
		c-15.6,0-29.8,6.4-40,16.6c-10.3,10.2-16.6,24.4-16.6,40c0,4.3,0.5,8.5,1.4,12.4c0.6,2.6,1.3,5,2.2,7.5h50.7
		c1.6-11.1,6.9-21.1,14.5-28.7c9.2-9.2,22.1-15,36.2-15c1,0,2.1,0,3.1,0.1c-1.1-2.4-2.4-4.8-3.9-7c-3.7-5.7-8.3-10.6-13.6-14.7
		c-3.3-2.5-4-7.2-1.5-10.5c2.5-3.3,7.1-4,10.5-1.5c6.8,5.1,12.7,11.4,17.3,18.5c3.8,5.9,6.8,12.4,8.7,19.3
		c5.9,2.6,11.2,6.2,15.6,10.7c8.8,8.8,14.5,20.9,15,34.3c6.8,3.1,13,7.5,18.3,12.7c11.3,11.3,18.3,26.9,18.3,44
		c0,17.1-7,32.7-18.3,44c-11.3,11.3-26.9,18.3-44,18.3L273,488L273,488z M274.7,363.4h32.5c-0.4-1.4-0.8-2.8-1.1-4.2
		c-1.2-5.1-1.8-10.4-1.8-15.7c0-5.8,0.7-11.5,2-16.9c-7.5,1.9-14.2,5.8-19.5,11.1C280.1,344.4,275.6,353.4,274.7,363.4z
		 M326.8,140.4c-4.1,0-7.5-3.3-7.5-7.5c0-4.2,3.4-7.5,7.5-7.5h169.9c4.1,0,7.5,3.3,7.5,7.5c0,4.1-3.3,7.5-7.5,7.5H326.8z
		 M449.9,345.3c-6.5-6.5-15.6-10.6-25.6-10.6s-19,4.1-25.6,10.6c-4.9,4.8-8.4,11.1-9.8,18.1h60.9h10
		C458.2,356.4,454.7,350.2,449.9,345.3L449.9,345.3z"/>
</g>
</svg>
