<?xml version="1.0" encoding="utf-8"?>
<!-- Generator: Adobe Illustrator 22.0.1, SVG Export Plug-In . SVG Version: 6.00 Build 0)  -->
<svg version="1.1" id="Capa_1" xmlns="http://www.w3.org/2000/svg" xmlns:xlink="http://www.w3.org/1999/xlink" x="0px" y="0px"
	 viewBox="0 0 512 512" style="enable-background:new 0 0 512 512;" xml:space="preserve">
<style type="text/css">
	.st0{fill:#5466BD;}
	.st1{fill:red;}
</style>
<circle class="st0" cx="256" cy="225.4" r="136.3"/>
<path class="st1" d="M416.1,66.3C373.4,23.6,316.5,0,256,0S138.6,23.6,95.9,66.3C53.1,109.1,29.6,166,29.6,226.4
	c0,106.7,74.6,198.8,178.2,221.3L256,512l48.2-64.3c103.6-22.4,178.2-114.6,178.2-221.3C482.4,166,458.9,109.1,416.1,66.3
	L416.1,66.3z M256,59.1c91.7,0,166.3,74.6,166.3,166.3S347.7,391.8,256,391.8S89.7,317.2,89.7,225.4S164.3,59.1,256,59.1z"/>
</svg>
