<?xml version="1.0" encoding="utf-8"?>
<!-- Generator: Adobe Illustrator 22.0.1, SVG Export Plug-In . SVG Version: 6.00 Build 0)  -->
<svg version="1.1" id="Layer_1" xmlns="http://www.w3.org/2000/svg" xmlns:xlink="http://www.w3.org/1999/xlink" x="0px" y="0px"
	 viewBox="0 0 242.3 124.5" style="enable-background:new 0 0 242.3 124.5;" xml:space="preserve">
<style type="text/css">
	.st0{fill-rule:evenodd;clip-rule:evenodd;fill:#7B857E;}
	.st1{fill-rule:evenodd;clip-rule:evenodd;fill:#87BC44;}
	.st2{fill-rule:evenodd;clip-rule:evenodd;fill:#5366BC;}
</style>
<path class="st0" d="M53.3,116.4l-0.5,2.3l-0.3,1.6l-0.3,1.2l-0.2,0.9c-0.1,0.4-0.3,0.7-0.4,1c-0.2,0.2-0.4,0.4-0.6,0.5
	c-0.2,0.2-0.5,0.3-0.7,0.3l-0.8,0.1l-0.5,0l-0.7,0.1l-0.5-0.4l2-6.7l1.8-5.6c-0.2-0.2-0.3-0.4-0.3-0.7c-0.1-0.6,0.2-1,0.8-1.1
	c1-3,2-5.8,2.8-8.6c0.9-2.7,1.6-5,2.3-6.8c0.1-0.2,0.2-0.4,0.3-0.6l0.5-0.4l0.6-0.2l0.6-0.1c0.3,0,0.6,0,0.8,0
	c0.3,0,0.7,0.1,1.2,0.2l2.4,7.6l1.9,5.8l1.6,4.6l1.4,3.2c0.4,0.8,0.8,1.5,1.2,2.1c0.4,0.6,0.7,1,1,1.2c0.3,0.3,0.6,0.4,0.9,0.5
	c0.3,0.1,0.6,0.1,1,0l0.7-0.1l1.4-0.5l0.8,1.7c-1.1,0.7-2,1.3-2.9,1.7c-0.9,0.4-1.6,0.6-2.4,0.7c-0.5,0.1-0.9,0-1.3-0.1
	c-0.4-0.1-0.8-0.4-1.2-0.7c-0.4-0.4-0.7-0.8-1.1-1.3c-0.4-0.6-0.8-1.2-1.2-2.1l-1.3-3l-1.4-3.6l-4,0.6l-4.1,0.7
	c-0.2,0.4-0.3,1-0.5,1.9L53.3,116.4L53.3,116.4L53.3,116.4z M58.2,98.3c-0.7,1.9-1.3,3.8-1.8,5.8c-0.6,2.3-1.2,4.2-1.7,5.6l3.4-0.5
	l3.5-0.5c-0.2-0.3-0.4-0.9-0.7-1.9l-1.1-3.4c-0.4-1.3-0.7-2.4-1-3.3L58.2,98.3L58.2,98.3L58.2,98.3z"/>
<path class="st0" d="M83.7,110.7l-0.1-2.8l-0.1-1.9l0-1.3l-0.1-0.6c0-0.2-0.1-0.3-0.2-0.3c0-0.1-0.1-0.1-0.3-0.1l-0.6,0
	c-0.6,0-1.1,0.1-1.6,0.3c-0.5,0.2-1,0.4-1.3,0.7c-0.3,0.3-0.6,0.7-0.8,1.1c-0.2,0.4-0.3,1-0.2,1.6c0,0.6,0.2,1.1,0.4,1.5
	c0.2,0.4,0.5,0.8,0.8,1.1c0.4,0.3,0.8,0.5,1.3,0.7c0.5,0.1,1.1,0.2,1.9,0.1l0.3,0L83.7,110.7l0.1,1.1l-2.2,2.1l-1.7,1.7l-1.2,1.4
	c-0.3,0.4-0.5,0.7-0.7,1c-0.2,0.3-0.3,0.6-0.4,0.9c0,0.3-0.1,0.6,0,0.8l0,0.2l0.1,0.3l0,0.5c-0.6,0.2-1.1,0.4-1.5,0.4l-0.8,0
	c-0.3,0-0.5-0.1-0.8-0.3c-0.2-0.2-0.4-0.3-0.5-0.6c-0.2-0.3-0.2-0.6-0.3-0.9c0-0.2,0-0.5,0.1-0.7c0.1-0.3,0.2-0.5,0.4-0.8l0.7-0.9
	l1.2-1.3l1.8-1.7c0.7-0.6,1.4-1,2.2-1.3c-0.4,0-1,0-1.7-0.2c-0.7-0.2-1.4-0.5-2-0.9c-0.6-0.4-1.1-0.9-1.5-1.5
	c-0.4-0.6-0.6-1.4-0.7-2.3c-0.1-0.8,0.1-1.5,0.4-2.3c0.4-0.8,0.9-1.4,1.6-2c0.7-0.6,1.6-1.1,2.6-1.4c1.1-0.4,2.3-0.6,3.6-0.7
	l1.6-0.1l1.6,0c0.5,0.1,0.8,0.2,1.1,0.5c0.3,0.2,0.4,0.6,0.4,1l0,0.7l0,1.3l0,1.5l0,1.8l0,1.8l0.1,2l0.2,2.2l0.2,1.3l0.3,0.9
	l0.2,0.4l0.3,0.1l0.4,0c0.3,0,0.7-0.1,1-0.2l1.7-0.6l0.6,1.3c-0.4,0.4-0.9,0.8-1.3,1.1l-1.4,0.7c-0.4,0.2-0.9,0.4-1.4,0.6
	c-0.5,0.2-0.9,0.3-1.3,0.3l-0.8,0c-0.2,0-0.5-0.1-0.7-0.3c-0.2-0.2-0.4-0.4-0.6-0.7c-0.2-0.3-0.3-0.7-0.4-1.2l-0.3-1.8l-0.2-2.6
	l-0.1-1.8L83.7,110.7L83.7,110.7z"/>
<path class="st0" d="M94.3,104.5l-0.1-0.6c0-0.2-0.1-0.3-0.2-0.4c0-0.1-0.1-0.2-0.2-0.2c-0.1-0.1-0.2-0.1-0.4-0.1l-0.9,0.1l-1.9,0.4
	l-0.4-1.7c1.6-0.6,2.9-1.1,3.7-1.3c0.9-0.3,1.5-0.4,1.9-0.4c0.3,0,0.5,0,0.8,0.1c0.3,0.1,0.5,0.2,0.7,0.4c0.2,0.2,0.4,0.4,0.5,0.7
	c0.1,0.3,0.2,0.6,0.2,1l0,0.7l0,1.5l0,1.8l-0.1,1.5l1.6-0.1l2-0.1l2-0.1l1.6-0.1l0-2.7l0.1-3.5c0-0.3,0.1-0.6,0.2-0.8
	c0.2-0.2,0.3-0.4,0.5-0.5c0.2-0.1,0.4-0.2,0.6-0.3l0.6-0.1c0.3,0,0.6,0,0.9,0.1c0.3,0.1,0.7,0.2,1.2,0.5l-0.2,3.2l-0.1,2.6l-0.1,2.3
	l0,2.1l0.1,2.3l0.2,1.4l0.2,0.9l0.2,0.4l0.3,0.1l0.4,0c0.4,0,0.7-0.1,1.1-0.2l1.8-0.6l0.5,1.3c-0.4,0.4-0.9,0.8-1.4,1.1l-1.4,0.7
	l-1.5,0.6c-0.5,0.2-0.9,0.2-1.3,0.2c-0.3,0-0.6,0-0.8-0.1c-0.2,0-0.5-0.1-0.7-0.3c-0.2-0.2-0.4-0.5-0.5-0.8
	c-0.1-0.4-0.3-0.8-0.4-1.3l-0.2-1.9l-0.1-2.7l0-1.1l0-0.6l0-0.1l-3.6,0.2l-3.7,0.3l0,3.4l0.1,4.8l-3.1,0.5l-0.7,0l0-3.1l0-2.8l0-2.8
	l0-2.6l0-2.1L94.3,104.5L94.3,104.5z"/>
<path class="st0" d="M123.8,105.2c0.2-0.5,0.3-0.9,0.3-1.3c0-0.2-0.1-0.5-0.1-0.7c-0.1-0.2-0.2-0.4-0.3-0.6
	c-0.2-0.2-0.4-0.3-0.6-0.4c-0.3-0.1-0.6-0.1-1-0.1c-0.5,0-1,0.1-1.4,0.3c-0.4,0.2-0.8,0.5-1.2,0.8c-0.3,0.3-0.6,0.7-0.9,1.2
	c-0.3,0.5-0.5,1-0.6,1.5c-0.2,0.6-0.3,1.1-0.3,1.7l-0.1,1.7c0,1,0.1,1.9,0.4,2.7c0.3,0.8,0.6,1.5,1,2c0.4,0.5,0.9,0.9,1.4,1.2
	c0.6,0.3,1.1,0.4,1.7,0.4c0.7,0,1.3-0.2,2-0.5c0.7-0.4,1.5-1,2.3-1.9c0.3,0.1,0.5,0.1,0.6,0.2c0.1,0,0.2,0.1,0.2,0.2l0.3,0.3
	c0.1,0.1,0.1,0.2,0.1,0.4l-0.1,0.3l0,0c-0.8,1.3-1.8,2.3-3,3c-1.2,0.7-2.5,1-3.9,1c-0.8,0-1.5-0.1-2.1-0.3c-0.6-0.2-1.2-0.5-1.7-0.8
	c-0.5-0.4-1-0.9-1.4-1.4c-0.4-0.5-0.7-1.1-1-1.7c-0.3-0.6-0.5-1.2-0.6-1.8c-0.1-0.7-0.2-1.3-0.2-2c0-0.9,0.1-1.8,0.3-2.6
	c0.2-0.9,0.5-1.8,0.8-2.6c0.4-0.8,0.8-1.6,1.3-2.3c0.6-0.7,1.2-1.4,1.9-1.9c0.7-0.6,1.5-1,2.3-1.3c0.8-0.3,1.7-0.4,2.7-0.5
	c0.7,0,1.4,0.1,2,0.3c0.6,0.2,1.2,0.4,1.6,0.7c0.5,0.3,0.9,0.7,1.1,1.2c0.3,0.5,0.4,1,0.4,1.6c0,0.4-0.1,0.8-0.2,1.1
	c-0.1,0.3-0.3,0.6-0.5,0.8c-0.2,0.2-0.5,0.4-0.8,0.5c-0.3,0.1-0.6,0.2-1,0.2l-0.7,0c-0.2,0-0.5-0.1-0.8-0.3L123.8,105.2L123.8,105.2
	z"/>
<path class="st0" d="M134.9,110.9l-0.2,2.1l-0.2,2.1l-0.1,2.3l0,1.1l-3.1,0.3l-0.7-0.1l0.3-3l0.2-2.7l0.2-2.8l0.2-2.6l0.1-2.1l0-1.5
	l0-0.6c0-0.2,0-0.3-0.1-0.4c0-0.1-0.1-0.2-0.2-0.2c-0.1-0.1-0.2-0.1-0.4-0.1l-0.8,0.1l-1.9,0.3l-0.2-1.7c1.6-0.5,2.9-0.9,3.8-1.1
	c0.9-0.2,1.6-0.3,1.9-0.3c0.3,0,0.5,0.1,0.8,0.2c0.3,0.1,0.5,0.3,0.7,0.5c0.2,0.2,0.3,0.4,0.4,0.8c0.1,0.3,0.2,0.7,0.2,1l-0.1,0.6
	l-0.1,1.4l-0.2,1.7l-0.2,2.1l0,0.5L134.9,110.9L134.9,110.9z M134.9,110.9l0-0.3l0.2-1.8l2-1.5l1.8-1.5l1.3-1.2
	c0.4-0.4,0.7-0.7,0.8-1c0.2-0.3,0.3-0.6,0.4-0.8l0.1-0.8c0-0.3,0-0.6-0.1-1l0.2-0.5c0.5-0.1,0.9-0.2,1.2-0.2c0.3,0,0.6,0.1,0.8,0.2
	c0.3,0.1,0.5,0.2,0.7,0.4c0.2,0.2,0.4,0.4,0.5,0.7c0.1,0.3,0.2,0.6,0.2,0.9c0,0.3-0.1,0.5-0.2,0.8c-0.1,0.3-0.3,0.5-0.5,0.8
	c-0.2,0.3-0.5,0.6-0.9,0.9l-1.3,1.2l-1.7,1.3l-2.4,1.8c0.7,0.9,1.4,1.8,1.9,2.6l1.5,2.1l1,1.4l0.7,0.7l0.5,0.3l0.5,0.1
	c0.3,0,0.7,0,1-0.1l1.6-0.3l0.4,1.3c-0.6,0.4-1.1,0.8-1.6,1l-1.4,0.6c-0.4,0.2-0.8,0.3-1.2,0.3c-0.4,0.1-0.7,0.1-1,0.1
	c-0.3,0-0.5-0.1-0.8-0.2c-0.3-0.1-0.5-0.3-0.8-0.5l-1-1l-1-1.4L137,114l-2-3L134.9,110.9L134.9,110.9z"/>
<path class="st0" d="M161.2,107.1l-3.9,5.2c-1.7,2.2-3.5,4.7-5.3,7.3l-3,0.1l-0.7-0.1l0.6-4.2l0.6-3.8l0.5-3.6l0.4-3.1
	c0-0.5,0-0.9-0.1-1.1c-0.1-0.2-0.3-0.3-0.6-0.3c-0.2,0-0.5,0-0.9,0.1l-2,0.1l-0.2-1.7l2.1-0.5l1.5-0.3l1.4-0.2l0.8,0
	c0.3,0,0.5,0.1,0.8,0.2c0.3,0.1,0.5,0.3,0.7,0.5c0.2,0.2,0.3,0.5,0.4,0.8c0.1,0.3,0.1,0.7,0.1,1.1l-0.2,1.2l-0.3,1.8l-0.3,2.1
	l-0.4,2.4l-0.4,2.6l-0.1,0.8l0,0c1.2-1.8,2.5-3.6,3.9-5.4l5.4-6.9l3-0.1l0.8,0.1l-0.4,2.1l-0.3,1.8l-0.3,2l-0.3,2l-0.2,1.7l-0.1,1.7
	l-0.2,2.5c0,0.6,0.1,1,0.1,1.3c0.1,0.3,0.2,0.5,0.3,0.6c0.1,0.1,0.3,0.1,0.5,0.1c0.4,0,0.7,0,1.1-0.1l1.8-0.4l0.4,1.3
	c-0.5,0.4-0.9,0.7-1.4,0.9l-1.5,0.6c-0.5,0.2-1,0.3-1.6,0.4c-0.5,0.1-1,0.1-1.5,0.1c-0.5,0-1-0.2-1.3-0.6c-0.3-0.4-0.5-0.8-0.6-1.4
	c-0.1-0.5-0.2-1.2-0.2-1.9l0.2-2.5l0.1-1.1l0.2-1.5l0.2-1.7l0.3-1.8L161.2,107.1C161.2,107.2,161.2,107,161.2,107.1L161.2,107.1z"/>
<path class="st0" d="M182.7,109.5l-4.1,5.1c-1.8,2.2-3.6,4.6-5.6,7.1l-3,0l-0.7-0.1l0.7-4.2l0.7-3.8l0.6-3.6l0.5-3
	c0.1-0.5,0.1-0.9,0-1.1c-0.1-0.2-0.3-0.3-0.6-0.3c-0.2,0-0.5,0-0.9,0l-2,0.1l-0.1-1.7l2.1-0.4l1.5-0.3l1.4-0.1l0.9,0
	c0.3,0,0.5,0.1,0.8,0.2c0.3,0.1,0.5,0.3,0.6,0.5c0.2,0.2,0.3,0.5,0.4,0.8c0.1,0.3,0.1,0.7,0,1.1l-0.2,1.2l-0.3,1.8l-0.4,2.1
	l-0.5,2.4l-0.5,2.6l-0.1,0.8l0,0c1.3-1.7,2.6-3.5,4-5.2l5.6-6.7l3,0l0.8,0.1l-0.5,2.1l-0.4,1.8l-0.4,2l-0.3,2l-0.3,1.7l-0.2,1.7
	l-0.3,2.5c0,0.6,0,1,0.1,1.3c0.1,0.3,0.2,0.5,0.3,0.6c0.1,0.1,0.3,0.1,0.5,0.2c0.4,0,0.7,0,1.1,0l1.8-0.3l0.3,1.3
	c-0.5,0.3-0.9,0.6-1.4,0.8l-1.5,0.5c-0.5,0.1-1,0.2-1.6,0.3c-0.5,0.1-1,0.1-1.5,0c-0.5-0.1-0.9-0.3-1.3-0.7
	c-0.3-0.4-0.5-0.8-0.6-1.4c-0.1-0.5-0.1-1.2-0.1-1.9l0.3-2.5l0.1-1.1l0.2-1.5l0.3-1.7l0.3-1.8L182.7,109.5L182.7,109.5L182.7,109.5z
	 M188.4,95.6c-0.3,0.9-0.6,1.6-0.9,2.2c-0.3,0.6-0.7,1.2-1.1,1.7c-0.4,0.5-0.9,1-1.4,1.4c-0.5,0.4-1,0.8-1.6,1.1
	c-0.6,0.3-1.2,0.5-1.9,0.7c-0.6,0.1-1.4,0.1-2.1,0c-0.8-0.1-1.5-0.3-2-0.5c-0.5-0.3-1-0.6-1.3-1c-0.3-0.4-0.6-0.8-0.7-1.2
	c-0.1-0.5-0.2-0.9-0.1-1.3c0-0.3,0.1-0.6,0.3-0.9c0.2-0.3,0.4-0.5,0.6-0.7c0.2-0.2,0.5-0.3,0.8-0.4c0.3-0.1,0.6-0.1,1-0.1l0.2,0
	l0.6,0.2c0,0.7,0.1,1.2,0.2,1.5c0.1,0.3,0.3,0.5,0.5,0.7c0.2,0.2,0.4,0.3,0.6,0.4c0.2,0.1,0.5,0.2,0.8,0.2c0.6,0.1,1.2,0,1.7-0.2
	c0.6-0.2,1.1-0.5,1.6-0.9c0.5-0.4,0.9-0.9,1.3-1.4c0.4-0.6,0.8-1.3,1.2-2.1L188.4,95.6L188.4,95.6z"/>
<path class="st1" d="M184.1,65.5c0.1,7.9-1.8,15.3-5.9,22h-3.2c4.3-6.6,6.4-13.9,6.3-21.9c-0.2-13.2-6.5-24.3-18.9-33.5
	C149.9,23,135,18.7,117.7,19c-17.3,0.3-32.1,5.2-44.2,14.7c-12,9.5-17.9,20.9-17.7,34.1c0.1,6.9,1.9,13.2,5.3,18.9l-3.2,0.1
	c-3.2-5.8-4.9-12.1-5-18.9c-0.2-13.9,6-25.8,18.6-35.8V32c12.7-9.9,28.1-15,46.2-15.4s33.6,4.3,46.5,13.8
	C177.2,40,183.9,51.7,184.1,65.5L184.1,65.5z"/>
<path class="st1" d="M87,15.4l8,18.1c2.5,5.8,4,10.4,4.6,13.8c1.3,8.2-2.5,16.5-11.5,25v7.4L86,79.8v-7.5
	C77.2,64,73.4,55.8,74.6,47.6c0.5-3.4,2-8,4.4-13.8C82.3,26.3,85,20.2,87,15.4L87,15.4z"/>
<path class="st1" d="M181.9,85.8c27.6,4,47.8,8.3,60.4,12.9c-54.4-11-111.9-14.3-172.5-9.9c-18.3,1.3-35.8,3.3-52.7,5.9L0,97.6
	c11.5-3.7,23.5-7,36-9.9c18.6-4.3,36-7.1,52.2-8.5c2.1-0.3,9.5-0.3,22.3,0.1c13.5,0.4,21,0.6,22.5,0.5L181.9,85.8L181.9,85.8z"/>
<path class="st0" d="M171.6,64.6l-0.9,17.8l1,0l-0.1,2l-19.5-0.9l0.1-2l1,0l0.9-17.8l-0.6,0l0-0.9l18.7,0.9l0,0.9L171.6,64.6
	L171.6,64.6L171.6,64.6z M169.5,66l-0.1,2.4l-2.4-0.1l0.1-2.4L169.5,66L169.5,66L169.5,66z M169.4,69l-0.1,2.3l-2.4-0.1l0.1-2.3
	L169.4,69L169.4,69L169.4,69z M166.4,68.2l-2.4-0.1l0.1-2.4l2.4,0.1L166.4,68.2L166.4,68.2L166.4,68.2z M166.3,71.2l-2.4-0.1
	l0.1-2.3l2.4,0.1L166.3,71.2L166.3,71.2L166.3,71.2z M170.1,65.5l-6.4-0.3l-0.3,6.4l6.4,0.3L170.1,65.5L170.1,65.5L170.1,65.5z
	 M158.9,67.8l0.1-2.4l2.4,0.1l-0.1,2.4L158.9,67.8L158.9,67.8L158.9,67.8z M161.2,68.6l-0.1,2.3l-2.4-0.1l0.1-2.3L161.2,68.6
	L161.2,68.6L161.2,68.6z M158.4,65.4l-0.1,2.4l-2.4-0.1l0.1-2.4L158.4,65.4L158.4,65.4L158.4,65.4z M158.3,68.4l-0.1,2.3l-2.4-0.1
	l0.1-2.3L158.3,68.4L158.3,68.4L158.3,68.4z M155.5,75.4l0.1-2.4l2.4,0.1l-0.1,2.4L155.5,75.4L155.5,75.4L155.5,75.4z M157.9,76.1
	l-0.1,2.4l-2.4-0.1l0.1-2.4L157.9,76.1L157.9,76.1L157.9,76.1z M160.9,76.2l-0.1,2.4l-2.4-0.1l0.1-2.4L160.9,76.2L160.9,76.2
	L160.9,76.2z M160.9,75.6l-2.4-0.1l0.1-2.4l2.4,0.1L160.9,75.6L160.9,75.6L160.9,75.6z M161.9,65.1l-6.4-0.3l-0.3,6.4l6.4,0.3
	L161.9,65.1L161.9,65.1L161.9,65.1z M155.2,72.5l-0.3,6.4l6.4,0.3l0.3-6.4L155.2,72.5L155.2,72.5L155.2,72.5z M163.3,82l0.4-8.7
	l4.4,0.2l-0.4,8.7l0.7,0l0.4-9.3l-5.8-0.3l-0.4,9.3L163.3,82L163.3,82L163.3,82z M164.3,76.9l-0.4,0l-0.1,1.7l0.4,0L164.3,76.9
	L164.3,76.9z"/>
<path class="st2" d="M122.2,51.6l-0.2-0.4l-0.1-0.4l-0.1-0.2l-0.1-0.2l-0.1-0.2l-0.1-0.1l0.2,0.7c0.1,0.2,0.1,0.4,0.1,0.7
	c0.1,0.1,0.3,0.3,0.4,0.7l0,0.1l-0.1-0.5L122.2,51.6L122.2,51.6L122.2,51.6z M123.2,56.3l-0.2,1.1v0.2l-0.1,0.9l0.1,0.6l0.1,0.3
	l0.1-0.2l0.1-0.2l0-0.6l0-0.5l-0.1-0.8L123.2,56.3L123.2,56.3L123.2,56.3L123.2,56.3z M112,79.4L112,79.4l0.2-0.5l0.1-0.3l-0.2-0.7
	l-0.1-0.5c-0.1,0.1-0.2,0.6-0.3,1.3c-0.1,0.4-0.1,0.8-0.1,1.3l0.1,0l0.1-0.2l0.1-0.1L112,79.4L112,79.4L112,79.4z M122.4,52.2
	l0.3,0.2l0.4,0.3l0.3,0c0.2,0.1,0.3,0.1,0.4,0.2l0.3,0.3c0.3,0.3,0.4,0.8,0.5,1.4l0.1,1.8l0.1,2.2l0,0.5c-0.1,0.4-0.3,1-0.6,1.6
	l-0.4,0.6l0.1,0.2l0.1,0.5l0.1,0.5l0.1,0.8l0.1,0.6l0.1,0.3c0.4,1.4,0.6,2.1,0.5,2.2l-0.3,0l-0.5,0.1l-0.1,0.9
	c-0.1,0.8-0.2,1.5-0.2,2.3l0,0.4v0.7l0.1,0.3l0.1,0.4l0.3,1.2c0.1,1,0.1,2.1,0,3.1l-0.1,0.3c0,0.3,0,0.6,0.1,0.9l0,0.2l0.1,0.6
	l0,0.3c0,0.2-0.1,0.4-0.2,0.6l-0.1,0.1L124,79l0.3,0.2l0.3,0c0.2,0,0.3,0.1,0.3,0.2l0,0.1c-0.1,0.1-0.3,0.2-0.5,0.3l-0.8,0.3
	l-1.7,0.2h-0.2c-0.2,0-0.3-0.1-0.3-0.2l0-0.1c0.1-0.1,0.1-0.2,0.3-0.2c0-0.1,0.1-0.2,0.2-0.3l0.2-0.2L122,79
	c0.1-0.1,0.1-0.1,0.2-0.1l0.5-1.2l0.2-1.2l0-0.5c0-0.4-0.1-0.8-0.2-1.2l-0.8-2.8c-0.1-0.3-0.2-0.5-0.3-0.7c-0.1-0.4-0.2-0.8-0.2-1.1
	c-0.1-0.9-0.2-1.6-0.2-2l-0.2-0.9l-0.2-0.6c-0.3-0.1-0.5-0.1-0.6,0l0.1,0.6l0,1.3l0.4,2.4c0,0.4,0,0.9-0.1,1.3l-0.1,0.7
	c0,0.5,0,1.1,0,1.7c0,0.6,0,1.2-0.1,1.6l-0.1,0.5l-0.2,2.6l0,0.3l-0.1,0.9l0,0.3l0,0.5l0.2,0c0.1,0,0.1,0.1,0,0.2l-0.3,0.1l-1.1,0.1
	l-0.7-0.1c-0.4-0.1-0.6-0.2-0.6-0.3l0.1-0.2c0.1-0.1,0.2-0.1,0.5-0.1l0.2-0.1l-0.1-0.1c-0.1-0.1,0-0.2,0-0.4l0.2-0.2l0.1-0.1
	c0.1-0.1,0.2-0.1,0.3-0.1l0.1-1.3l-0.1-1.1l-0.2-1.6l-0.1-1.2c-0.1-0.9-0.2-1.6-0.2-2.2c-0.1-0.7-0.1-1.1-0.1-1.3
	c-0.1-0.7-0.2-1.2-0.2-1.5l-0.2-0.8c-0.2-0.6-0.3-1.1-0.4-1.5c-0.1-0.6-0.2-1-0.2-1.3l-0.3-0.1l-0.1,0c0,0-0.1,0-0.1-0.1l0.1-1V65
	c0-0.2,0-0.3,0-0.3c-0.1-0.2-0.1-0.3,0-0.4c0-0.1-0.1-0.2,0-0.3c0-0.1,0-0.2,0.1-0.3c-0.1-0.2-0.1-0.3,0-0.4l0-0.3
	c0-0.2,0-0.4,0.1-0.4c0-0.2,0.1-0.3,0.1-0.4l0-0.1l0-0.4c0-0.7,0.1-1.2,0.2-1.3l0.1-0.2H117l-0.5,1.3c-0.4,0.9-0.6,1.5-0.8,1.8v0.1
	c0,0.1,0,0.4,0.1,0.6l0.1,0.2l0.1,0.4l0.1,0.1l0,0.4l0,0.2c0,0.2-0.1,0.3-0.2,0.4v0.1l0,0.1l0.1,0.3l0,0.1l0,0.3
	c0,0.1,0,0.2-0.1,0.3l-0.1-0.1c0-0.1-0.1-0.2-0.1-0.3l0-0.3l-0.1-0.1l-0.3,0.1l0,0l0,0.1l0.1,0.1l0.1,0.3l0.2,0.1l0.2,0.2l0.1,0.1
	c0.1,0.1,0.1,0.1,0.1,0.2l-0.1,0c-0.1,0-0.1,0-0.2-0.1l-0.4-0.2l-0.2-0.2h-0.2c-0.1,0-0.2-0.1-0.2-0.2l0-0.2l-0.2-0.6l0-0.4
	l-0.1,0.2c-0.1,0.1-0.2,0.2-0.3,0.2L114,66l0-0.3c0-0.3-0.1-0.6,0-0.9v-0.3c0-0.2,0-0.4,0.1-0.5c0.1-0.3,0.2-0.5,0.3-0.6
	c0-0.3,0-0.6,0-0.9v-0.4c-0.1-0.7-0.1-1.1-0.2-1.4l-0.2-0.8l0,0.3l0,0.5c0,0.5,0,0.7-0.1,0.7l0,0.5c0,0.4,0,0.8,0,1.1l-0.1,1.8
	c-0.1,1.3-0.2,2.1-0.3,2.5l0.1,0.6v1.6l-0.1,0.8l-0.2,1l0,0.2c0,0.1,0,0.3-0.1,0.5v0.1c0,0.1-0.1,0.2-0.2,0.3l-0.8,0.1l0.1,0.8
	c0.1,0.6,0,1.2,0,1.7l0.1,0.4L113,76l0.2,0.1l0.3,0.2l0.2,0.3c0.1,0.3,0.1,0.6-0.1,0.9l-0.1,0.3l0.4-0.1c0.3-0.1,0.6,0,0.8,0.2
	l0.1,0.2c0,0.3-0.2,0.5-0.5,0.9l-0.1,0.3c-0.1,0.2-0.2,0.4-0.2,0.5c0,0.2-0.1,0.4-0.4,0.5c-0.3,0.1-0.7,0.2-1.2,0.2l-0.5,0l-0.1,0.2
	l-0.1,0.5l0.1,0.1l0.1,0.3l0.4,0.1c0.2,0.1,0.2,0.3,0,0.4l-0.3,0.3l-0.5,0.4c-0.1,0.1-0.4,0.3-0.8,0.3l-1.4,0.1H109
	c-0.2,0-0.3-0.1-0.3-0.3c0-0.1,0.1-0.2,0.2-0.3v-0.3c0-0.2,0.1-0.3,0.3-0.5c0-0.1,0-0.1,0-0.2c0.1-0.2,0.2-0.3,0.4-0.4
	c0.2-0.4,0.4-0.6,0.4-0.8v-0.3c0-0.2,0.1-0.4,0.2-0.6c0.2-1.1,0.2-2,0.2-2.5l-0.2-1.2c-0.1-0.6-0.1-1.1-0.1-1.7l-0.6-1.2l-0.4-0.8
	l-0.6,0c-0.4-0.1-0.6-0.2-0.5-0.3l-0.2-0.3c-0.1-0.3-0.2-0.5-0.2-0.7l-0.1-0.3l0-0.1c-0.1-0.1-0.1-0.3-0.1-0.5
	c-0.1-0.3-0.1-0.6,0-0.9l0-0.2l0-0.3l0-0.6l0-0.5l-0.1-0.8c-0.1-0.6-0.1-1.2-0.1-1.8c-0.1-0.7-0.1-1.2-0.1-1.6l0-1
	c-0.1-0.1-0.1-0.3,0-0.4c0-0.9,0-1.5,0.1-1.7l0-0.6c0-0.5,0-0.8,0.1-1.1l0.1-1.4l-0.1,0l-0.4,0.7l-0.1,0.6l-0.1,0.2l-0.5,0.3
	c-0.2,0-0.3,0-0.4-0.1c-0.3-0.1-0.5-0.3-0.5-0.3l-0.2-0.1c-0.1-0.2-0.1-0.4-0.1-0.7c0-0.1,0.1-0.3,0.2-0.5c0.1-0.3,0.1-0.5,0.1-0.7
	l-0.3-0.5c-0.1-0.2-0.1-0.3-0.1-0.5l0-0.1c0-0.1,0-0.2,0.1-0.2l0.1,0c0.1,0.1,0.2,0.3,0.2,0.6l0.2-2v-0.6c0-0.4,0.1-0.8,0.2-1.1
	c0-0.2,0.1-0.4,0.2-0.6c0.3-0.4,0.7-0.7,1.3-0.8c0.1,0,0.1-0.1,0.2-0.1l0.2-0.1l0.3-0.2c0.2-0.1,0.4-0.2,0.5-0.2l0.2-0.1
	c0.1-0.1,0.2-0.1,0.3-0.1l0.1-0.3c0.1-0.2,0.1-0.4,0-0.8c-0.1-0.1-0.2-0.3-0.2-0.4v0.1l0,0.2c-0.1-0.3-0.2-0.5-0.3-0.7l0,0
	c0,0,0,0.1,0,0.2l-0.2-0.3l0,0.1c0,0.1,0,0.3,0,0.5c-0.1-0.1-0.1-0.2-0.1-0.3l0,0v0.1l-0.1-0.2c-0.1-0.2-0.2-0.4-0.2-0.6l0,0
	c0,0,0,0.1,0,0.2c-0.1-0.1-0.1-0.3-0.2-0.5l-0.1-0.1c-0.1-0.1-0.1-0.3,0-0.4l-0.1,0l-0.1,0.1l0-0.3c0.1-0.3,0.2-0.5,0.5-0.8
	c0.2-0.4,0.3-0.7,0.4-0.9l0.2-0.3c0.2-0.2,0.4-0.3,0.6-0.3l0.2-0.1l0.5,0c0-0.1,0-0.1-0.1-0.1c-0.1,0-0.3,0-0.6,0.1l0.2-0.1l0.1,0
	c0.1-0.1,0.3-0.1,0.5-0.1l0.1-0.1c0.1-0.1,0.2-0.1,0.4-0.1c0-0.1-0.1-0.1-0.1,0l0.1,0c0.1,0,0.2,0,0.3,0.1h0.1l0.1,0l0.1,0
	c0.1,0,0.3,0.1,0.4,0.2c-0.1-0.1-0.2-0.1-0.3-0.1l0.2,0.1l0.2,0.2l0,0l0.3,0.1l0.4,0.4l0.3,0.2c0.1,0.1,0.2,0.2,0.2,0.3
	c-0.1-0.1-0.1-0.2-0.2-0.2l0,0l-0.2-0.1c0.1,0,0.2,0.1,0.2,0.2l0.2,0.5l0.1,0.1c0.1,0.1,0.1,0.3,0.1,0.4l-0.1-0.2
	c-0.1-0.2-0.2-0.3-0.3-0.3l0.1,0.1l0.2,0.3c-0.1,0-0.2-0.1-0.3-0.4l0.1,0.3c0.1,0.2,0.2,0.4,0.3,0.6c-0.2,0-0.3-0.1-0.4-0.2l0.2,0.3
	c0.2,0.2,0.4,0.4,0.6,0.4l-0.5,0l0.1,0.1l0.2,0.1h-0.1c-0.1,0-0.1,0-0.2-0.1l0.1,0.2l0.1,0.4c-0.1-0.2-0.1-0.3-0.2-0.3l-0.1,0
	c0,0-0.1,0.1-0.1,0.2l-0.2-0.2l0.1,0.2v0.3l-0.2-0.3l0,0.2c0.1,0.2,0.1,0.3,0,0.4c0-0.2-0.1-0.3-0.1-0.4v0.2l-0.1,0.3l0-0.2l0,0.1
	l-0.3,0.3l-0.1-0.3v0.1l-0.1,0.2l0,0.4c0,0.3,0.1,0.5,0.1,0.5l0.3,0.1c0.2,0.1,0.3,0.2,0.4,0.2l0.3,0c0.2,0,0.3,0.1,0.3,0.2l0.1,0.1
	l0.2,0.1l0.9,0.3l0.2,0c0.1,0,0.2,0.1,0.3,0.2c0.3,0.3,0.6,0.8,0.7,1.5l0.1,1.4c0.1,1.2,0,2.3-0.1,3.4l0,0.4l0,0.6l0.1,0.8l0.1,0.9
	l0.3-0.4l0.4-1l0.1-0.8l0.1-1.7l0-0.9c0.1-0.6,0.2-1.1,0.4-1.3l0.1-0.1l0.2-0.2l0.1-0.1c0.1-0.1,0.2-0.1,0.3-0.1l0.2-0.1l0.5-0.1
	c0.1,0,0.2,0,0.3-0.1l0.4-0.6c0-0.3,0.1-0.5,0.2-0.6c-0.1,0-0.2-0.1-0.3-0.3c-0.2-0.2-0.3-0.5-0.4-0.8c-0.1-0.3-0.1-0.6,0-0.8
	l-0.1-0.4l-0.1-0.2c-0.1-0.2-0.1-0.4,0-0.6l0.1-0.3c0.1-0.2,0.1-0.3,0.2-0.4l-0.1,0c-0.1,0.1-0.1,0.1-0.2,0.3l0-0.2
	c0.1-0.1,0.1-0.2,0.3-0.3c0-0.1,0-0.2,0.1-0.3v0.1l0.1-0.1c0.1-0.1,0.2-0.1,0.3-0.2l0.2-0.1c0.1-0.1,0.3-0.1,0.5-0.2l0.3,0
	c0.2,0,0.3,0.1,0.4,0.2l0.1,0c0.1,0,0.2,0.1,0.3,0.2l0.1,0.1c0.1,0,0.2,0.1,0.2,0.2l0.2,0.2c0.1,0.2,0.2,0.3,0.2,0.5l0.1,0.2
	l0.1,0.5v0.4c0,0.1-0.1,0.3-0.2,0.5l0,0.1l0.2,0.3c0.1,0.3,0.2,0.5,0.3,0.7l0.1,0.3l0.1,0.4C122.3,51.7,122.4,51.9,122.4,52.2
	L122.4,52.2L122.4,52.2z M122.4,52.2L122.4,52.2L122.4,52.2L122.4,52.2z"/>
<path class="st2" d="M146.8,53.3c-0.3,0.6-0.7,1-1.2,1.3c-0.3,0.1-0.7,0.2-1.3,0.2l-0.1,0l-0.6,1.4c-0.8,1.8-1.6,3.3-2.4,4.4
	c-0.8,1.1-1.8,2-3.2,2.7v0.1l-0.1,0.2l-0.1,0.1l-0.2,0.1l-0.1,0.1l-0.3,0.2v0.1l-1,2.1l-0.6,0.3l-0.1,0.2c-0.1,1.1,0,1.9,0.3,2.7
	v0.1h-0.2c-0.3-0.8-0.4-1.8-0.3-2.9l-0.4,0.2v0.2l-0.1,0.1l-0.3,0.1l-0.3,0.3l-0.2,0.4l-0.1,0.4l0.1,0.1l-0.2,0.4v0.3l0.1,0.5
	l0.1,6.6L134,77l-0.4,0.2l-0.6,0.1l-0.3,0.1l-0.3,0.2l-0.1,0.2l0.1,0.1V78l-0.2,0.2v0.1L132,79l-0.3,0.6V80l-0.1,0.6l-0.5,0.1
	l-0.8-0.2v-0.1l0.2-0.3l0.1-0.3h-0.1l0.1-0.2h0.1v-1.2l-0.1-0.6l-0.4-0.1l-0.2-0.2l-0.6-3.2l-0.1-2.6l0.5-1c0.2-0.1,0.2-0.3,0-0.5
	l-0.1-0.3l-0.4,0.6l-1.1,1.2c0,0.1-0.1,0.2-0.3,0.3l-0.4,0.2l-0.4,0.4c-0.1,0-0.2-0.1-0.3-0.2l-0.2-0.2v-0.1l-0.1-0.1v-0.2l0.1-0.1
	l0.1-0.2l0.3-0.1h0.4l0.3-0.1l0.2-0.3l0.6-1.2l0.3-0.4l-0.2-0.1v-0.1l0.2-0.2l0.1-0.3v-0.3l0.2-0.5v-0.4l0.1-0.4l0.2-0.3l0.6-0.3
	l-0.1-0.2v-0.5l-0.2-1.1l0.2-0.5l0.9-1.4l0.9-0.4h0.5l0.4,0.1c0.3,0.3,0.5,0.6,0.5,0.8l0.3,0.9l0.4,0.6l0.2,0.6l-0.2,0.5h0.2
	l0.2,0.1h0.7l0.4-0.2l0.1-0.1c0.2-0.6,0.6-1.2,1-1.7l0,0l0.2-0.3l0.5-0.3v-0.1h-0.1V63l0.1-0.1h0.1l0.1-0.1h0.4l0.1,0.3
	c1.1-0.5,2.1-1.4,2.9-2.6c1-1.4,1.8-2.9,2.4-4.3l0.6-1.5c-0.4-0.1-0.7-0.3-0.9-0.4c-0.3-0.3-0.6-0.8-0.9-1.5c-0.6-2.3-0.4-4,0.4-5.2
	c0.7-1,1.7-1.4,3-1.3c1.2,0.2,2,0.9,2.4,2.2C148.4,49.8,148,51.4,146.8,53.3L146.8,53.3z"/>
<path class="st2" d="M170.3,10.9c-1-0.6-2-0.9-3.2-0.6c-1.2,0.2-2.1,0.9-2.7,1.8c-0.6,1-0.8,2.1-0.6,3.2c0.2,1.1,0.8,2,1.8,2.7
	c1,0.6,2.1,0.8,3.2,0.6c1.1-0.2,2-0.8,2.7-1.8c0.6-0.9,0.9-2,0.6-3.2C171.9,12.4,171.2,11.6,170.3,10.9L170.3,10.9L170.3,10.9z
	 M172,11.5l6.6-1.1l-5.5,2.9l9.4,1.6l-9.9,1.6l4.8,3.7l-6-1.6l4.6,9.5l-6.5-8.9l-0.7,2.8l-1-2.3l-1.2,3v-2.4l-2.9,3.4l1.3-4.6
	l-10,5.8l7.9-7.4l-4.6,0.7l4.4-2.4l-8.3-1.2l7.9-1.5l-4.2-2.8l4.9,1.1l-6-11.1l9.4,9.3l0.5-7.2l1.3,6.8l2.8-4.9L170,9.5l7.4-4.8
	L172,11.5L172,11.5z"/>
<path class="st2" d="M65.5,19.7c0.8,0.2,1.3,0.5,1.8,1c0.4,0.5,0.6,1,0.5,1.5c-0.1,0.5-0.4,0.9-0.9,1.2c-0.5,0.3-1.2,0.5-1.9,0.5
	l-0.7-0.1c-0.5-0.1-1-0.2-1.4-0.4c-0.4,0.4-0.8,0.5-1.3,0.5l-0.3,0c-0.4-0.1-0.8-0.3-1.1-0.6c-0.3,0.5-0.7,0.9-1.2,1.2
	c-0.5,0.3-1.1,0.5-1.7,0.6l-0.7,0.1c-0.6,0-1.1-0.1-1.6-0.3c-0.5-0.2-0.9-0.5-1.3-0.9c-0.4,0.4-0.9,0.6-1.4,0.6l-0.3,0
	c-0.6-0.1-1.1-0.4-1.4-1c-0.5,0.3-1,0.4-1.6,0.4c-0.9,0-1.6-0.3-2.2-0.9c-0.6-0.6-0.9-1.3-0.9-2.1c0-0.7,0.3-1.4,0.8-1.9
	c0.5-0.5,1.2-0.9,1.9-1c0-0.5,0.2-0.9,0.6-1.3c0.4-0.4,0.8-0.5,1.4-0.5l0.5,0.1c-0.1-0.8,0.3-1.6,0.9-2.3c0.7-0.7,1.5-1.1,2.6-1.3
	l0.8-0.1c1,0,1.9,0.3,2.6,0.8c0.2-0.1,0.4-0.1,0.6-0.1c0.7,0,1.4,0.2,2.2,0.7c0.6,0.3,1,0.7,1.3,1.2c0.3,0.5,0.5,1,0.5,1.4l0.1,0
	c0.9,0.1,1.6,0.4,2.2,0.9c0.6,0.5,0.8,1.1,0.7,1.7L65.5,19.7L65.5,19.7z"/>
<path class="st2" d="M120,5c0,0.2,0,0.4-0.1,0.6c0.7,0.2,1.3,0.6,1.7,1c0.4,0.4,0.7,0.9,0.7,1.4c0,0.7-0.4,1.4-1.3,1.9
	c-0.9,0.5-1.9,0.8-3.1,0.8c-1.3,0-2.3-0.3-3.2-0.8c-0.5,0.4-1.1,0.8-1.9,1.1c-0.8,0.3-1.6,0.4-2.5,0.4c-1.5,0-2.9-0.3-3.9-1
	c-0.8,0.5-1.8,0.8-3,0.8c-0.8,0-1.5-0.1-2.2-0.4c-0.6-0.3-1.1-0.6-1.5-1.1l-0.8,0c-1,0-1.9-0.2-2.6-0.6c-0.7-0.4-1.1-0.9-1.1-1.5
	c0-0.6,0.4-1,1.1-1.4c0.7-0.4,1.6-0.6,2.6-0.6l0-0.1c0-0.5,0.3-0.9,0.9-1.3c0.6-0.4,1.3-0.6,2.2-0.6l0-0.1c0-0.6,0.4-1,1.1-1.4
	c0.7-0.4,1.6-0.6,2.7-0.5l1,0.1c0.4-0.4,0.9-0.8,1.6-1c0.7-0.3,1.5-0.4,2.4-0.4c1.2,0,2.3,0.2,3.1,0.7c0.9,0.5,1.3,1.1,1.3,1.8v0
	l0.4,0c1.2,0,2.3,0.2,3.1,0.7C119.6,3.7,120,4.3,120,5L120,5z"/>
</svg>
