<?xml version="1.0" encoding="utf-8"?>
<!-- Generator: Adobe Illustrator 22.0.1, SVG Export Plug-In . SVG Version: 6.00 Build 0)  -->
<svg version="1.1" id="Capa_1" xmlns="http://www.w3.org/2000/svg" xmlns:xlink="http://www.w3.org/1999/xlink" x="0px" y="0px"
	 viewBox="0 0 512 512" style="enable-background:new 0 0 512 512;" xml:space="preserve">
<style type="text/css">
	.st0{fill:#2C3438;}
</style>
<g>
	<g>
		<path class="st0" d="M256,0C165.4,0,91.7,73.7,91.7,164.3v183.4C91.7,438.3,165.4,512,256,512s164.3-73.7,164.3-164.3V164.3
			C420.3,73.7,346.6,0,256,0z M256,30.8c72.8,0,132.2,58.6,133.5,131.1H271.4v-34.6c0-8.5-6.9-15.4-15.4-15.4s-15.4,6.9-15.4,15.4
			v34.6H122.5C123.8,89.4,183.2,30.8,256,30.8z M389.5,347.7c0,73.6-59.9,133.5-133.5,133.5s-133.5-59.9-133.5-133.5v-155h118.1
			v34.6c0,8.5,6.9,15.4,15.4,15.4s15.4-6.9,15.4-15.4v-34.6h118.1V347.7L389.5,347.7z"/>
	</g>
</g>
</svg>
