<?xml version="1.0" encoding="utf-8"?>
<!-- Generator: Adobe Illustrator 22.0.1, SVG Export Plug-In . SVG Version: 6.00 Build 0)  -->
<svg version="1.1" id="Capa_1" xmlns="http://www.w3.org/2000/svg" xmlns:xlink="http://www.w3.org/1999/xlink" x="0px" y="0px"
	 viewBox="0 0 512 512" style="enable-background:new 0 0 512 512;" xml:space="preserve">
<style type="text/css">
	.st0{fill:#87BC44;}
</style>
<g>
	<path class="st0" d="M383.9,325.6c0,4.2-3.3,7.5-7.5,7.5c-4.1,0-7.5-3.3-7.5-7.5v-40.5L360,294c-2.9,2.9-7.7,2.9-10.6,0
		s-2.9-7.7,0-10.6l19.5-19.5v-16.3l-2,2c-2.9,2.9-7.7,2.9-10.6,0c-2.9-2.9-2.9-7.7,0-10.6l14.7-14.8c2.9-2.9,7.7-2.9,10.6,0
		l14.7,14.8c2.9,2.9,2.9,7.7,0,10.6c-2.9,2.9-7.7,2.9-10.6,0l-2-2v16.3l19.5,19.5c2.9,2.9,2.9,7.7,0,10.6s-7.7,2.9-10.6,0l-8.9-8.9
		L383.9,325.6L383.9,325.6z M351.8,123.3l18.7-0.4c2.4-0.1,4.6,1,6.1,2.9l12.5,16.2l12.5-16.2c1.6-2,4-3,6.4-2.9l18.4,0.4
		l-37.2-37.2L351.8,123.3z M441.6,138.6l-30.5-0.7l-16,20.8c-0.4,0.6-0.9,1-1.4,1.5c-3.3,2.5-8,1.9-10.5-1.4L367,138l-30.5,0.7
		l-30.5,30.5l14.3,14.3h166L441.6,138.6z M43.2,82.5l18.7-0.4c2.4,0,4.6,1,6.1,2.9l12.5,16.2L92.9,85c1.6-2,4-3,6.4-2.9l18.4,0.4
		L80.4,45.2L43.2,82.5z M132.9,97.8l-30.5-0.7l-16,20.8c-2.9,4-8.9,4.1-11.9,0.1L58.4,97.1l-30.5,0.7l-13,13v72.8h114.9l44.4-44.4
		L132.9,97.8z M263.5,198.5v21.1c0,4.1-3.3,7.5-7.5,7.5c-4.1,0-7.5-3.3-7.5-7.5v-21.1h-14.9l-41.4,271.4h56.2v-35.7
		c0-4.1,3.3-7.5,7.5-7.5c4.1,0,7.5,3.3,7.5,7.5v35.7h56.2l-41.4-271.4H263.5z M248.5,267.2c0-4.1,3.3-7.5,7.5-7.5
		c4.1,0,7.5,3.3,7.5,7.5v33.5c0,4.1-3.3,7.5-7.5,7.5c-4.1,0-7.5-3.3-7.5-7.5V267.2z M248.5,348.2c0-4.1,3.3-7.5,7.5-7.5
		c4.1,0,7.5,3.3,7.5,7.5v38.4c0,4.1-3.3,7.5-7.5,7.5c-4.1,0-7.5-3.3-7.5-7.5V348.2z M177.1,469.8l41.4-271.4h-85.6H15v213.4
		c0,4.1-3.3,7.5-7.5,7.5c-4.1,0-7.5-3.3-7.5-7.5V191v-83.4c0-2.3,1-4.3,2.6-5.7l72.5-72.5c2.9-2.9,7.7-2.9,10.6,0l99.1,99.1l35-35
		c2.9-2.9,7.7-2.9,10.6-0.1l23.6,23.6c2.9,2.9,2.9,7.7,0,10.6c-2.9,2.9-7.7,2.9-10.6,0l-18.3-18.3L151,183.5h76.2h57.5h14.5
		l-31.8-31.8c-2.9-2.9-2.9-7.7,0-10.6c2.9-2.9,7.7-2.9,10.6,0l17.5,17.5l88.3-88.3c2.9-2.9,7.7-2.9,10.6,0l115,115.1
		c1.6,1.4,2.6,3.4,2.6,5.7v36.8c0,4.1-3.3,7.5-7.5,7.5s-7.5-3.4-7.5-7.5v-29.3H317.3h-23.8l41.4,271.4H497V261.8
		c0-4.2,3.4-7.5,7.5-7.5s7.5,3.3,7.5,7.5v215.5c0,4.2-3.3,7.5-7.5,7.5c-165.7,0-331.3,0-497,0c-4.1,0-7.5-3.3-7.5-7.5v-31.5
		c0-4.1,3.4-7.5,7.5-7.5s7.5,3.3,7.5,7.5v24L177.1,469.8z M76.5,352.3c-2.9,2.9-7.7,2.9-10.6,0c-2.9-2.9-2.9-7.7,0-10.6l26.4-26.4
		v-11.5l-8.9,8.9c-2.9,2.9-7.7,2.9-10.6,0c-2.9-2.9-2.9-7.7,0-10.6l19.5-19.5v-11.4l-2,2c-2.9,2.9-7.7,2.9-10.6,0
		c-2.9-2.9-2.9-7.7,0-10.6l14.8-14.8c2.9-2.9,7.7-2.9,10.6,0l14.8,14.8c2.9,2.9,2.9,7.7,0,10.6c-2.9,2.9-7.7,2.9-10.6,0l-2-2v11.4
		l19.5,19.5c2.9,2.9,2.9,7.7,0,10.6c-2.9,2.9-7.7,2.9-10.6,0l-8.9-8.9v11.5l26.4,26.4c2.9,2.9,2.9,7.7,0,10.6
		c-2.9,2.9-7.7,2.9-10.6,0l-15.8-15.8v52.9c0,4.1-3.4,7.5-7.5,7.5s-7.5-3.4-7.5-7.5v-52.9L76.5,352.3z M424.2,406.9
		c-2.9,2.9-7.7,2.9-10.6,0c-2.9-2.9-2.9-7.7,0-10.6l25.2-25.1v-26.1l-5.8,5.8c-2.9,2.9-7.7,2.9-10.6,0c-2.9-2.9-2.9-7.7,0-10.6
		l18.6-18.6c2.9-2.9,7.7-2.9,10.6,0l18.6,18.6c2.9,2.9,2.9,7.7,0,10.6c-2.9,2.9-7.7,2.9-10.6,0l-5.8-5.8v26.1l25.1,25.1
		c2.9,2.9,2.9,7.7,0,10.6c-2.9,2.9-7.7,2.9-10.6,0l-14.5-14.6v55.8c0,4.1-3.4,7.5-7.5,7.5s-7.5-3.4-7.5-7.5v-55.8L424.2,406.9z"/>
</g>
</svg>
