<?xml version="1.0" encoding="utf-8"?>
<!-- Generator: Adobe Illustrator 22.0.1, SVG Export Plug-In . SVG Version: 6.00 Build 0)  -->
<svg version="1.1" id="Capa_1" xmlns="http://www.w3.org/2000/svg" xmlns:xlink="http://www.w3.org/1999/xlink" x="0px" y="0px"
	 viewBox="0 0 512 512" style="enable-background:new 0 0 512 512;" xml:space="preserve">
<style type="text/css">
	.st0{fill:#87BC44;}
</style>
<g>
	<path class="st0" d="M0,139.3c0-15.1,6.1-28.7,16-38.6c9.7-9.7,22.9-15.7,37.6-16c2.2-16.7,9.9-31.7,21.3-43.1
		c13.6-13.6,32.3-22,53-22c13.3,0,26.6,3.6,38.1,10.4c3.6,2.1,4.7,6.7,2.6,10.3c-2.1,3.6-6.7,4.7-10.3,2.6
		c-9.3-5.5-19.6-8.3-30.5-8.3c-16.6,0-31.6,6.7-42.4,17.6C74.7,63,68,78,68,94.6c0,7.5,1.4,14.7,3.9,21.2c2.2,5.8,5.3,11.2,9,16H142
		c1.6-10.7,6.7-20.4,14-27.7c8.2-8.2,19.3-13.6,31.7-14.5c-0.3-3.8-0.9-7.4-1.9-10.9c-1.4-5.2-3.5-10.1-6.2-14.7
		c-2.1-3.6-0.9-8.2,2.6-10.3c3.6-2.1,8.2-0.9,10.3,2.6c3.3,5.6,6,11.8,7.7,18.3c1.4,5.2,2.3,10.6,2.6,16c9.1,2.2,17.2,6.8,23.6,13.2
		c7.3,7.3,12.4,17,14,27.7h160.7c1.4-1.7,2.9-3.4,4.5-5c14.2-14.2,33.7-23,55.2-23c17.4,0,34.3,5.9,48,16.5c1.9,1.4,3.2,3.6,3.2,6.2
		v358.3c0,4.1-3.3,7.5-7.5,7.5H7.5c-4.1,0-7.5-3.4-7.5-7.5L0,139.3z M157.3,131.8h67.9c-1.4-6.6-4.8-12.5-9.4-17.1
		c-6.3-6.3-15-10.2-24.6-10.2c-9.6,0-18.3,3.9-24.6,10.2C162.1,119.3,158.7,125.2,157.3,131.8z M53.2,99.7
		c-10.4,0.4-19.7,4.7-26.6,11.6c-5.5,5.5-9.4,12.6-10.9,20.5h47.2c-2-3.4-3.7-7-5-10.7C55.3,114.4,53.7,107.2,53.2,99.7z
		 M242.3,182.6c3.8-1.6,8.2,0.1,9.8,3.9s-0.1,8.2-3.9,9.8c-3.5,1.5-7.1,3.9-10,6.4c-4.4,4-7.5,8.9-9.5,14.3
		c-2.1,5.7-3.2,11.9-3.5,18.3c-0.6,9.9-0.9,19.7-1.3,29.7c-0.7,18.9-1.4,38.4-3.4,57.6c-0.4,4.1-4.1,7.1-8.2,6.7
		c-4.1-0.4-7.1-4.1-6.7-8.2c2-18.9,2.7-38,3.4-56.6c0.4-10.4,0.8-20.6,1.3-30c0.5-7.7,1.8-15.5,4.5-22.7c2.8-7.5,7.1-14.5,13.5-20.2
		C232.2,188.1,237.5,184.7,242.3,182.6L242.3,182.6z M289.3,349.5c0,4.1-3.4,7.5-7.5,7.5s-7.5-3.3-7.5-7.5V231.8
		c0-4.1,3.3-7.5,7.5-7.5s7.5,3.4,7.5,7.5V349.5z M345.9,374.3c0,4.1-3.4,7.5-7.5,7.5s-7.5-3.4-7.5-7.5v-82c0-4.1,3.3-7.5,7.5-7.5
		c4.1,0,7.5,3.4,7.5,7.5V374.3z M345.9,258.3c0,4.1-3.4,7.5-7.5,7.5s-7.5-3.4-7.5-7.5v-56.7c0-6.9,1.2-13.7,3.3-20
		c2.2-6.5,5.5-12.6,9.6-17.9c2.5-3.3,7.2-3.9,10.5-1.4c3.3,2.5,3.9,7.2,1.4,10.5c-3.1,4.1-5.6,8.7-7.3,13.7
		c-1.6,4.7-2.5,9.9-2.5,15.2V258.3z M421.7,407c3.5,2.2,4.6,6.8,2.4,10.3c-2.2,3.5-6.8,4.6-10.3,2.4c-5.1-3.1-10.7-5.6-16.6-7.3
		c-5.8-1.7-11.9-2.5-18-2.5c-9,0-17.6,1.8-25.5,5.1c-8.1,3.4-15.4,8.4-21.5,14.6c-3,3-7.7,2.9-10.7-0.1c-3.9-3.5-8.4-6.4-13.5-8.3
		c-4.9-1.9-10.3-3-15.9-3c-12.1,0-23,4.9-31,12.8c-7.9,7.9-12.8,18.9-12.8,31c0,3.5,0.4,6.9,1.2,10.1c0.4,1.8,1,3.6,1.6,5.3h193.9
		c0.1-6.7-0.7-13.2-2.5-19.7c-1.7-5.9-4.2-11.5-7.3-16.6c-2.2-3.5-1.1-8.1,2.4-10.3c3.5-2.2,8.1-1.1,10.3,2.4
		c3.9,6.3,6.9,13.2,9,20.4c2.2,7.7,3.3,15.8,3.1,23.7H497V130.3c-10.7-7.5-23.1-11.4-36.1-11.4c-17.3,0-33.2,7.1-44.6,18.6
		c-11.5,11.5-18.6,27.2-18.6,44.6v215c1.2,0.3,2.4,0.6,3.7,0.9C408.6,400,415.4,403.1,421.7,407L421.7,407z M235.5,477.4
		c-0.2-0.6-0.3-1.3-0.5-1.9c-1-4.3-1.6-8.9-1.6-13.5c0-16.2,6.6-30.9,17.2-41.6c1.9-1.9,3.9-3.7,6.1-5.3c-1.6-4.6-3.7-9.1-6.2-13.3
		c-3.5-5.7-7.7-10.9-12.6-15.3c-3-2.8-3.3-7.5-0.5-10.6c2.8-3.1,7.5-3.3,10.6-0.5c6,5.4,11.2,11.7,15.4,18.7
		c2.6,4.3,4.8,8.8,6.6,13.5c6.9-2.8,14.4-4.4,22.3-4.4c7.5,0,14.7,1.4,21.4,4.1c4.6,1.8,9,4.2,13,7.1c6.4-5.4,13.6-9.9,21.4-13.2
		c9.6-4,20.1-6.2,31.2-6.2c1.1,0,2.3,0,3.4,0.1V182c0-12.7,3.1-24.7,8.4-35.3H234.3c-7,1.8-55.4,16.6-59.2,81
		c-0.3,4.6-0.5,9.1-0.7,13.7c-0.2,4.1-3.7,7.3-7.8,7.2c-4.1-0.2-7.3-3.7-7.1-7.8c0.2-4.6,0.4-9.2,0.7-13.9
		c2.5-42.9,22.5-67,40.8-80.2h-52H15v330.6h22.5c-0.3-1-0.5-2.1-0.8-3.1c-1.1-4.8-1.6-9.6-1.6-14.6c0-18.3,7.5-35,19.5-47
		c12-12,28.6-19.4,47-19.4c6.2,0,12.2,0.9,17.9,2.4c5.6-9.6,13-18.1,21.8-24.8c6.1-12.4,9.8-27,12.3-42.7
		c2.6-16.7,3.8-34.9,4.6-53.4c0.2-4.1,3.7-7.3,7.8-7.1c4.1,0.2,7.3,3.7,7.1,7.8c-0.8,18.9-2,37.5-4.8,55
		c-1.6,10.1-3.7,19.8-6.5,28.8c9.4-3.6,19.5-5.6,30.1-5.6c4,0,8.1,0.3,12,0.9c4,0.6,7.9,1.5,11.8,2.6c4,1.2,6.2,5.3,5.1,9.3
		c-1.2,4-5.3,6.2-9.3,5.1c-3.1-0.9-6.4-1.6-9.7-2.1c-3.2-0.5-6.5-0.7-9.9-0.7c-13.5,0-26.1,3.9-36.7,10.6
		c-8.8,5.6-16.3,13.2-21.8,22.1c1.3,0.7,2.6,1.5,3.9,2.3c10.7,6.8,19.2,16.6,24.6,28.2c1.7,3.7,0.1,8.2-3.7,9.9
		c-3.8,1.7-8.2,0.1-9.9-3.7c-4.1-9-10.8-16.6-19-21.9c-8-5.1-17.5-8.1-27.7-8.1c-14.2,0-27.1,5.8-36.4,15.1
		c-9.3,9.3-15.1,22.2-15.1,36.4c0,4,0.4,7.7,1.2,11.3c0.5,2.2,1.1,4.4,1.9,6.4L235.5,477.4L235.5,477.4z"/>
</g>
</svg>
